<?xml version="1.0" encoding="iso-8859-1"?>
<!-- Generator: Adobe Illustrator 19.0.0, SVG Export Plug-In . SVG Version: 6.00 Build 0)  -->
<svg version="1.1" id="Layer_1" xmlns="http://www.w3.org/2000/svg" xmlns:xlink="http://www.w3.org/1999/xlink" x="0px" y="0px"
	 viewBox="0 0 499.38 499.38" style="enable-background:new 0 0 499.38 499.38;" xml:space="preserve">
<path style="fill:#FF5B00;" d="M92.913,454.4c-52,52-68.8,49.6-80,38.4c-12-12-13.6-28.8,38.4-80c52-52,120-101.6,132-89.6
	S144.913,402.4,92.913,454.4z"/>
<path style="fill:#FF7900;" d="M162.513,324.8c-27.2,12-74.4,48.8-112,87.2c-36,36-45.6,54.4-44.8,67.2c12,3.2,31.2-4.8,70.4-44
	C113.713,397.6,149.713,352,162.513,324.8z"/>
<path style="fill:#D64700;" d="M99.313,368c11.2,13.6,24,25.6,38.4,36c31.2-38.4,52.8-73.6,44.8-81.6
	C174.513,313.6,138.513,336,99.313,368z"/>
<path style="fill:#E04805;" d="M139.313,338.4l-0.8,0.8c-1.6,0.8-3.2,2.4-5.6,3.2c-0.8,0.8-1.6,1.6-2.4,1.6c-1.6,0.8-2.4,1.6-4,2.4
	s-2.4,1.6-4,3.2c-0.8,0.8-1.6,1.6-3.2,2.4s-3.2,2.4-4.8,4c-0.8,0.8-1.6,0.8-1.6,1.6c-1.6,1.6-4,3.2-5.6,4.8l-0.8,0.8
	c-2.4,1.6-4,3.2-6.4,5.6l0,0c6.4,7.2,12.8,13.6,19.2,20c20-24,36-47.2,44-63.2C156.113,328,148.113,332,139.313,338.4z"/>
<circle style="fill:#064059;" cx="280.913" cy="212.8" r="212.8"/>
<path style="fill:#03263A;" d="M130.513,62.4c83.2-83.2,217.6-83.2,300.8,0s83.2,217.6,0,300.8"/>
<circle style="fill:#748184;" cx="280.913" cy="212.8" r="168"/>
<path style="fill:#5D6F77;" d="M112.113,212.8c0-92.8,75.2-168,168-168s168,75.2,168,168"/>
<path style="fill:#4B5D63;" d="M172.113,104.8c64-64,166.4-65.6,232.8-4.8c-1.6-1.6-3.2-4-4.8-5.6c-65.6-65.6-172-65.6-238.4,0
	c-65.6,65.6-65.6,172,0,238.4c1.6,1.6,4,3.2,5.6,4.8C106.513,271.2,108.113,168.8,172.113,104.8z"/>
<path style="fill:#D64700;" d="M43.313,461.6c4,4,1.6,12.8-2.4,16.8s-10.4,4-14.4,0s-4-10.4,0-14.4S39.313,457.6,43.313,461.6z"/>
<circle style="fill:#064059;" cx="33.713" cy="471.2" r="10.4"/>
<path style="fill:#4B5D63;" d="M395.313,123.2c44,44,52.8,138.4,0,190.4c-52.8,52.8-147.2,44-190.4,0s-7.2-92,45.6-144
	S351.313,79.2,395.313,123.2z"/>
<path style="fill:#F4F3EA;" d="M395.313,123.2c44,44,36.8,122.4-16,174.4c-52.8,52.8-131.2,60-174.4,16s-7.2-92,45.6-144
	S351.313,79.2,395.313,123.2z"/>
<path style="fill:#FFFEF5;" d="M390.513,119.2c-2.4-2.4-4.8-4.8-7.2-6.4c-40.8-27.2-84.8,8.8-132.8,56
	c-52.8,52.8-90.4,100.8-46.4,144.8c4,4,8,7.2,12.8,10.4c40,24.8,86.4,5.6,132-40C401.713,231.2,433.713,163.2,390.513,119.2z"/>
<g>
	<circle style="fill:#F4F3EA;" cx="204.913" cy="268.8" r="6.4"/>
	<circle style="fill:#F4F3EA;" cx="372.113" cy="200" r="4"/>
	<circle style="fill:#F4F3EA;" cx="275.313" cy="304.8" r="6.4"/>
	<circle style="fill:#F4F3EA;" cx="352.113" cy="225.6" r="8"/>
	<circle style="fill:#F4F3EA;" cx="355.313" cy="125.6" r="5.6"/>
	<circle style="fill:#F4F3EA;" cx="380.913" cy="137.6" r="3.2"/>
	<circle style="fill:#F4F3EA;" cx="249.713" cy="295.2" r="3.2"/>
	<circle style="fill:#F4F3EA;" cx="353.713" cy="251.2" r="3.2"/>
	<circle style="fill:#F4F3EA;" cx="224.913" cy="296" r="2.4"/>
	<circle style="fill:#F4F3EA;" cx="368.913" cy="158.4" r="2.4"/>
	<circle style="fill:#F4F3EA;" cx="236.913" cy="276" r="2.4"/>
	<path style="fill:#F4F3EA;" d="M346.513,164c14.4,19.2,3.2,53.6-24.8,75.2s-63.2,22.4-77.6,3.2c-14.4-19.2-3.2-52,25.6-73.6
		C296.913,147.2,332.113,144.8,346.513,164z"/>
</g>
<path style="fill:#FFB600;" d="M346.513,164c14.4,19.2,1.6,39.2-27.2,60.8c-28,21.6-61.6,36.8-76,17.6c-14.4-19.2-3.2-52,25.6-73.6
	C296.913,147.2,332.113,144.8,346.513,164z"/>
<g>
	<path style="fill:#FFCE00;" d="M320.913,172.8c10.4,14.4,0.8,28.8-20,44.8s-45.6,27.2-56.8,13.6c-10.4-14.4-2.4-38.4,19.2-54.4
		S310.513,159.2,320.913,172.8z"/>
	<path style="fill:#FFCE00;" d="M333.713,165.6c0,2.4-6.4,3.2-8.8,3.2s-4-1.6-4-4s1.6-4,4-4S333.713,163.2,333.713,165.6z"/>
	<circle style="fill:#FFCE00;" cx="334.513" cy="173.6" r="0.8"/>
	<circle style="fill:#FFCE00;" cx="316.913" cy="157.6" r="3.2"/>
</g>
<g>
</g>
<g>
</g>
<g>
</g>
<g>
</g>
<g>
</g>
<g>
</g>
<g>
</g>
<g>
</g>
<g>
</g>
<g>
</g>
<g>
</g>
<g>
</g>
<g>
</g>
<g>
</g>
<g>
</g>
</svg>
